# xmcd CD database file
#
# Track frame offsets:
#	150
#	15350
#	48823
#	77158
#	109407
#	125944
#	157934
#	187952
#	213965
#
# Disc length: 3066 seconds
#
# Revision: 0
# Processed by: cddbd v1.5.2PL0 Copyright (c) Steve Scherf et al.
# Submitted via: CDex 1.79
#
DISCID=6d0bf809
DTITLE=Jivko Petrov Trio - Between The Worlds
DYEAR=2015
DGENRE=Jazz
TTITLE0=Renaissance
TTITLE1=Between The Worlds
TTITLE2=The 3rd Day Of The Year
TTITLE3=Alfonsina Y El Mar
TTITLE4=Senor Astor
TTITLE5=Silent Steps
TTITLE6=The End Is A New Beginning
TTITLE7=Milonga Para Jaco
TTITLE8=One Day In Paris
EXTD=YEAR: 2015
EXTT0=
EXTT1=
EXTT2=
EXTT3=
EXTT4=
EXTT5=
EXTT6=
EXTT7=
EXTT8=
PLAYORDER=
